<svg width="24" height="24" viewBox="0 0 24 24" fill="none" xmlns="http://www.w3.org/2000/svg">
  <path d="M13.983 11.078h2.119a.186.186 0 00.186-.185V9.006a.186.186 0 00-.186-.186h-2.119a.185.185 0 00-.185.185v1.888c0 .102.083.185.185.185m-2.954-5.43h2.118a.186.186 0 00.186-.186V3.574a.186.186 0 00-.186-.185h-2.118a.185.185 0 00-.185.185v1.888c0 .102.082.185.185.185m0 2.716h2.118a.187.187 0 00.186-.186V6.29a.186.186 0 00-.186-.185h-2.118a.185.185 0 00-.185.185v1.887c0 .102.082.185.185.186m-2.93 0h2.12a.186.186 0 00.184-.186V6.29a.185.185 0 00-.185-.185H8.1a.185.185 0 00-.185.185v1.887c0 .102.083.185.185.186m-2.964 0h2.119a.186.186 0 00.185-.186V6.29a.185.185 0 00-.185-.185H5.136a.186.186 0 00-.186.185v1.887c0 .102.084.185.186.186m5.893 2.715h2.118a.186.186 0 00.186-.185V9.006a.186.186 0 00-.186-.186h-2.118a.185.185 0 00-.185.185v1.888c0 .102.082.185.185.185m-2.93 0h2.12a.185.185 0 00.184-.185V9.006a.185.185 0 00-.184-.186H8.1a.185.185 0 00-.185.185v1.888c0 .102.083.185.185.185m-2.964 0h2.119a.185.185 0 00.185-.185V9.006a.185.185 0 00-.184-.186H5.136a.186.186 0 00-.186.186v1.887c0 .102.084.185.186.185m-2.92 0h2.12a.185.185 0 00.184-.185V9.006a.185.185 0 00-.184-.186h-2.12a.185.185 0 00-.185.185v1.888c0 .102.083.185.185.185M23.763 9.89c-.065-.051-.672-.51-1.954-.51-.338 0-.676.033-1.01.098-.31-2.157-1.544-2.497-1.626-2.497l-.328-.066-.203.32c-.257.438-.386.958-.372 1.488.027.272.085.517.18.738-.23.129-.647.299-1.285.299H.832l-.549.001c-.014.197-.014.393 0 .589.038 2.758 1.414 5.146 4.022 6.982 1.31.99 3.004 1.497 5.007 1.497 1.047 0 2.138-.138 3.212-.415 1.863-.479 3.525-1.421 4.784-2.715 1.529-.011 2.89-.519 3.629-1.35.066-.066.125-.133.179-.201l.039-.045-.363-.244-.001.001-.048.035zm-9.48-.45h-2.12a.186.186 0 01-.184-.186V7.367a.185.185 0 01.185-.185h2.119a.185.185 0 01.185.185v1.887a.186.186 0 01-.185.185" fill="#2496ED"/>
</svg>