<svg width="24" height="24" viewBox="0 0 24 24" fill="none" xmlns="http://www.w3.org/2000/svg">
  <path d="M10.204 14.35l.007.007-.01-.004-.004.004c-.012-.002-.012-.002-.02 0-.006 0-.006 0-.002-.007zm1.717-3.498c-.065.002-.133.018-.192.054l-3.209 1.911c-.111.066-.18.186-.18.316v3.823c0 .129.069.249.18.315l3.209 1.911c.111.066.249.066.36 0l3.209-1.911c.111-.066.18-.186.18-.315v-3.823c0-.129-.069-.249-.18-.316l-3.209-1.911c-.058-.035-.125-.051-.192-.054h-.176zm3.291 7.447c-.027.03-.066.037-.102.018l-4.834-2.42c-.02-.01-.04-.02-.051-.04l-2.463-4.82c-.018-.036-.012-.076.018-.103.03-.026.074-.029.107-.006l4.25 2.635c.02.014.037.03.047.054l2.046 4.576c.015.038.008.077-.018.106zm.921-3.654c-.037.013-.078.002-.104-.027l-3.209-3.498c-.018-.018-.027-.04-.033-.066l-.955-5.005c-.006-.04.014-.08.051-.099.038-.018.083-.01.111.02l3.59 3.18c.018.016.03.038.034.063l.54 5.332c.004.04-.008.08-.025.1zm-3.027-8.874c-.006.04-.032.076-.069.092l-4.834 2.42c-.02.01-.044.012-.066.007l-5.168-.914c-.04-.007-.071-.04-.073-.083-.002-.042.025-.08.065-.09l5.033-1.239c.023-.006.046-.006.069 0l4.973 2.735c.04.022.059.067.07.072zm-7.954 3.926c.019.038.014.084-.011.118l-3.209 3.498c-.018.018-.044.027-.069.027-.007 0-.014 0-.021-.002-.04-.007-.074-.04-.081-.081l-.54-5.332c-.004-.025.002-.051.014-.072.012-.021.031-.037.054-.045l5.168-.914c.043-.008.086.017.102.058l.955 5.005c.002.026-.002.052-.011.074l-.351.666zm-.934 4.088c.03.027.036.071.015.108l-2.046 4.576c-.01.024-.029.043-.054.054l-4.25 2.635c-.033.023-.077.02-.107-.006-.03-.027-.036-.067-.018-.103l2.463-4.82c.011-.02.029-.037.051-.048l4.834-2.42c.036-.019.075-.012.102.018l.01.006z" fill="#326CE5"/>
</svg>