<svg width="24" height="24" viewBox="0 0 24 24" fill="none" xmlns="http://www.w3.org/2000/svg">
  <path d="M13.394 3.036c.562-.65 1.176-.928 1.71-.794 1.336.338 2.272 2.34 2.584 5.334h-5.936c.114-1.744.384-3.334.642-4.54zm-1.358.14c-.272 1.228-.56 2.918-.674 4.4H5.43c.564-2.704 1.684-4.444 2.848-4.696.658-.142 1.378.204 2.022.848l.014.014c.572.628 1.218 1.7 1.722 3.434zm-.932 5.676c.114 1.244.354 2.388.618 3.3-.396.548-.874 1.008-1.386 1.276-.68.356-1.324.356-1.722-.088-.798-.888-1.526-2.672-1.902-4.488h4.392zm1.24 0h5.936c-.312 2.994-1.248 4.996-2.584 5.334-.534.134-1.148-.144-1.71-.794-.258-1.206-.528-2.796-.642-4.54zm6.798-1.276H24c0 3.382-1.416 6.418-3.688 8.58L16.9 12.744c1.058-1.064 1.828-2.456 2.342-4.168zm-7.686 0c-.114-1.482-.402-3.172-.674-4.4C10.226 1.732 9.506 1.386 8.848 1.528 7.684 1.78 6.564 3.52 6 6.224 4.32 7.568 3.172 9.54 2.84 11.776c.354-1.712 1.124-3.104 2.182-4.168l2.534 2.532c-.376 1.816-1.104 3.6-1.902 4.488-.398.444-1.042.444-1.722.088-.512-.268-.99-.728-1.386-1.276.264-.912.504-2.056.618-3.3h4.392zm7.686 1.276c-.514 1.712-1.284 3.104-2.342 4.168l2.412 2.412C21.584 18.418 23 15.382 23 12h-5.858z" fill="#005571"/>
</svg>