<svg width="24" height="24" viewBox="0 0 24 24" fill="none" xmlns="http://www.w3.org/2000/svg">
  <path d="M17.128 0c.661 0 1.02.498 1.02 1.052 0 .554-.359 1.052-1.02 1.052s-1.02-.498-1.02-1.052c0-.554.359-1.052 1.02-1.052zm-2.755 1.052c0-.554.359-1.052 1.02-1.052s1.02.498 1.02 1.052-.359 1.052-1.02 1.052-1.02-.498-1.02-1.052zM23.42 9.684c-1.324-5.152-3.982-6.858-7.056-6.858-3.075 0-5.733 1.706-7.056 6.858-1.324 5.152.331 9.316 3.605 9.316s5.902-4.164 7.056-9.316c1.154-5.152-.331-9.316-3.605-9.316z" fill="#336791"/>
  <path d="M9.051 3.878C8.727 1.734 7.403.027 5.746.027c-1.657 0-2.981 1.707-2.305 3.851.676 2.144 2.648 3.851 4.305 3.851s2.981-1.707 2.305-3.851zm11.898 15.438c-1.324 5.152-3.982 6.858-7.056 6.858s-5.733-1.706-7.056-6.858c-1.324-5.152.331-9.316 3.605-9.316s5.902 4.164 7.056 9.316c1.154 5.152-.331 9.316-3.605 9.316z" fill="#336791"/>
</svg>