<svg width="24" height="24" viewBox="0 0 24 24" fill="none" xmlns="http://www.w3.org/2000/svg">
  <path d="M24 12.595c0 .675-.615 1.294-1.627 1.738l-8.09 3.555c-.49.216-1.074.216-1.566 0l-8.09-3.555C2.615 13.889 2 13.27 2 12.595v-1.738c0-.675.615-1.294 1.627-1.738l8.09-3.555c.49-.216 1.074-.216 1.566 0l8.09 3.555C23.385 9.563 24 10.182 24 10.857v1.738z" fill="#DC382D"/>
  <path d="M24 8.857c0 .675-.615 1.294-1.627 1.738l-8.09 3.555c-.49.216-1.074.216-1.566 0l-8.09-3.555C2.615 10.151 2 9.532 2 8.857 2 8.182 2.615 7.563 4.627 7.119l8.09-3.555c.49-.216 1.074-.216 1.566 0l8.09 3.555C23.385 7.563 24 8.182 24 8.857z" fill="#DC382D"/>
  <path d="M24 5.119c0 .675-.615 1.294-1.627 1.738l-8.09 3.555c-.49.216-1.074.216-1.566 0L4.627 6.857C2.615 6.413 2 5.794 2 5.119 2 4.444 2.615 3.825 4.627 3.381l8.09-3.555c.49-.216 1.074-.216 1.566 0l8.09 3.555C23.385 3.825 24 4.444 24 5.119z" fill="#DC382D"/>
</svg>